<svg xmlns="http://www.w3.org/2000/svg" width="15.609" height="17.343" viewBox="0 0 15.609 17.343">
  <g id="Iconly_Bold_Delete" data-name="Iconly Bold Delete" transform="translate(-380.278 -513.351)">
    <g id="Delete" transform="translate(380.278 513.351)">
      <path id="Delete-2" d="M383.728,571.66a2.529,2.529,0,0,1-2.543-2.451c-.271-2.469-.725-8.3-.734-8.364a.691.691,0,0,1,.166-.484.615.615,0,0,1,.454-.2H393.1a.628.628,0,0,1,.454.2.642.642,0,0,1,.157.484c0,.059-.462,5.9-.726,8.364a2.529,2.529,0,0,1-2.6,2.451c-1.12.023-2.217.031-3.3.031C385.939,571.694,384.817,571.686,383.728,571.66ZM379.9,558.766a.633.633,0,0,1-.619-.637v-.33a.629.629,0,0,1,.619-.636h2.529a1.11,1.11,0,0,0,1.076-.88l.132-.591a1.727,1.727,0,0,1,1.658-1.341h3.581a1.723,1.723,0,0,1,1.648,1.3l.141.633a1.11,1.11,0,0,0,1.076.881h2.529a.627.627,0,0,1,.621.633h0v.33a.632.632,0,0,1-.618.637Z" transform="translate(-379.278 -554.351)" fill="#eb1e00"/>
    </g>
  </g>
</svg>
