<svg width="18" height="24" viewBox="0 0 18 24" fill="none" xmlns="http://www.w3.org/2000/svg">
    <path
        d="M0.0177684 10.0867C-0.138609 4.42585 1.04726 2.33299 1.54245 1.95508C0.682376 7.07645 8.07122 9.85215 8.07122 9.81306C14.3263 11.627 16.7502 8.69235 17.1802 7.07645C17.3366 7.07645 17.4018 7.96259 17.4148 8.32747L17.2193 21.5805C17.2506 22.2373 16.0335 23.0009 15.421 23.3006C13.4662 24.7862 2.5589 23.3788 2.51981 23.3006C0.393073 22.8315 0.19158 21.9323 0.174144 21.3068C0.069893 17.5668 -0.0447827 10.0867 0.0177684 10.0867Z"
        fill="#556784" />
    <path
        d="M8.52847 13.9174V9.92982L14.2363 9.77344V13.7611C14.205 14.6055 13.5977 14.8687 13.298 14.8948C12.1121 14.9209 9.7404 14.9808 9.7404 15.0121C8.7083 15.0434 8.50241 14.2954 8.52847 13.9174Z"
        fill="#EEEEEE" />
    <path
        d="M17.0963 6.59328C17.5546 8.82014 14.3928 10.523 11.3226 10.392C6.6487 10.1926 2.38786 7.11727 1.60817 4.6284C0.691717 1.70294 1.90554 -0.910823 9.76466 0.305677C12.8288 0.779968 17.0963 3.58655 17.0963 6.59328Z"
        fill="#EEEEEE" />
    <path
        d="M13.8603 17.123L9.55988 17.3185C8.1212 17.3839 7.65728 18.4143 7.60516 18.9214C7.59213 20.5243 7.57388 23.9411 7.60516 23.8473C10.5902 24.16 13.2566 23.9111 13.8603 23.8082C14.464 23.7053 14.9376 23.6127 15.1895 23.4172V18.6477C15.252 17.5844 14.3294 17.1882 13.8603 17.123Z"
        fill="#D3D5D8" />
    <path
        d="M13.8603 16.4199L9.55988 16.6154C8.1212 16.6808 7.65728 17.7112 7.60516 18.2183C7.59213 19.8211 7.57388 23.0034 7.60516 22.9096C7.95701 23.2224 9.55988 23.2224 9.55988 23.2614C10.7796 23.3553 12.935 23.1442 13.8603 23.0269C14.7047 22.9331 15.0983 22.4926 15.1895 22.2841V17.9446C15.252 16.8812 14.3294 16.4851 13.8603 16.4199Z"
        fill="#EEEEEE" />
    <path
        d="M16.0347 5.90329C16.4256 7.8971 13.7281 9.42178 11.1088 9.3045C7.12114 9.12595 3.48595 6.37244 2.82075 4.14404C2.03887 1.52472 3.07446 -0.815504 9.77956 0.273687C12.3938 0.698343 16.0347 3.21121 16.0347 5.90329Z"
        fill="#556784" />
    <circle cx="11.4973" cy="11.3372" r="0.312755" fill="#E7CB08" />
    <circle cx="11.4973" cy="12.5881" r="0.312755" fill="#E7CB08" />
    <circle cx="11.4973" cy="13.9172" r="0.312755" fill="#E7CB08" />
    <path d="M4.45996 2.97168L5.71098 6.45108H14.9764L13.2171 3.08896L4.45996 2.97168Z"
        fill="#EEEEEE" />
</svg>
